<svg width="20" height="20" viewBox="0 0 20 20" fill="none" xmlns="http://www.w3.org/2000/svg">
<path fill-rule="evenodd" clip-rule="evenodd" d="M4.75 1.5C2 1.5 2 1.708 2 4.25V4.275C2 5.382 2 6.182 2.271 6.52C2.536 6.848 3.323 7 4.75 7C6.177 7 6.964 6.847 7.229 6.519C7.5 6.182 7.5 5.382 7.5 4.274C7.5 1.708 7.5 1.5 4.75 1.5ZM4.75 8.5C3.064 8.5 1.799 8.323 1.104 7.46C0.5 6.711 0.5 5.689 0.5 4.275L1.25 4.25H0.5C0.5 1.38 0.681 0 4.75 0C8.819 0 9 1.38 9 4.25C9 5.688 9 6.711 8.396 7.46C7.701 8.323 6.436 8.5 4.75 8.5Z" fill="white"/>
<path fill-rule="evenodd" clip-rule="evenodd" d="M15.75 1.5C13 1.5 13 1.708 13 4.25V4.275C13 5.382 13 6.182 13.271 6.52C13.536 6.848 14.323 7 15.75 7C17.177 7 17.964 6.847 18.229 6.519C18.5 6.182 18.5 5.382 18.5 4.274C18.5 1.708 18.5 1.5 15.75 1.5ZM15.75 8.5C14.064 8.5 12.799 8.323 12.104 7.46C11.5 6.711 11.5 5.689 11.5 4.275L12.25 4.25H11.5C11.5 1.38 11.681 0 15.75 0C19.819 0 20 1.38 20 4.25C20 5.688 20 6.711 19.396 7.46C18.701 8.323 17.436 8.5 15.75 8.5Z" fill="white"/>
<path fill-rule="evenodd" clip-rule="evenodd" d="M4.75 12.5C2 12.5 2 12.708 2 15.25V15.275C2 16.382 2 17.182 2.271 17.52C2.536 17.848 3.323 18 4.75 18C6.177 18 6.964 17.847 7.229 17.519C7.5 17.182 7.5 16.382 7.5 15.274C7.5 12.708 7.5 12.5 4.75 12.5ZM4.75 19.5C3.064 19.5 1.799 19.323 1.104 18.46C0.5 17.711 0.5 16.689 0.5 15.275L1.25 15.25H0.5C0.5 12.38 0.681 11 4.75 11C8.819 11 9 12.38 9 15.25C9 16.688 9 17.711 8.396 18.46C7.701 19.323 6.436 19.5 4.75 19.5Z" fill="white"/>
<path fill-rule="evenodd" clip-rule="evenodd" d="M15.75 12.5C13 12.5 13 12.708 13 15.25V15.275C13 16.382 13 17.182 13.271 17.52C13.536 17.848 14.323 18 15.75 18C17.177 18 17.964 17.847 18.229 17.519C18.5 17.182 18.5 16.382 18.5 15.274C18.5 12.708 18.5 12.5 15.75 12.5ZM15.75 19.5C14.064 19.5 12.799 19.323 12.104 18.46C11.5 17.711 11.5 16.689 11.5 15.275L12.25 15.25H11.5C11.5 12.38 11.681 11 15.75 11C19.819 11 20 12.38 20 15.25C20 16.688 20 17.711 19.396 18.46C18.701 19.323 17.436 19.5 15.75 19.5Z" fill="white"/>
</svg>
