<svg width="16" height="14" viewBox="0 0 16 14" fill="none" xmlns="http://www.w3.org/2000/svg">
<path d="M6.60847 10.8274H1.35787" stroke="#130F26" stroke-width="1.5" stroke-linecap="round" stroke-linejoin="round"/>
<path d="M8.9504 2.75029H14.201" stroke="#130F26" stroke-width="1.5" stroke-linecap="round" stroke-linejoin="round"/>
<path fill-rule="evenodd" clip-rule="evenodd" d="M5.27191 2.70521C5.27191 1.6255 4.39011 0.75 3.30262 0.75C2.21514 0.75 1.33334 1.6255 1.33334 2.70521C1.33334 3.78492 2.21514 4.66042 3.30262 4.66042C4.39011 4.66042 5.27191 3.78492 5.27191 2.70521Z" stroke="#130F26" stroke-width="1.5" stroke-linecap="round" stroke-linejoin="round"/>
<path fill-rule="evenodd" clip-rule="evenodd" d="M14.6667 10.7948C14.6667 9.7151 13.7855 8.8396 12.6981 8.8396C11.6099 8.8396 10.7281 9.7151 10.7281 10.7948C10.7281 11.8745 11.6099 12.75 12.6981 12.75C13.7855 12.75 14.6667 11.8745 14.6667 10.7948Z" stroke="#130F26" stroke-width="1.5" stroke-linecap="round" stroke-linejoin="round"/>
</svg>
