<svg width="21" height="19" viewBox="0 0 21 19" fill="none" xmlns="http://www.w3.org/2000/svg">
<path fill-rule="evenodd" clip-rule="evenodd" d="M9.2721 0.688C9.62319 0.414891 10.0553 0.266612 10.5001 0.266612C10.9449 0.266612 11.377 0.414891 11.7281 0.688L20.1121 7.208C20.8651 7.795 20.4491 9 19.4971 9H18.5001V17C18.5001 17.5304 18.2894 18.0391 17.9143 18.4142C17.5392 18.7893 17.0305 19 16.5001 19H4.5001C3.96967 19 3.46096 18.7893 3.08589 18.4142C2.71082 18.0391 2.5001 17.5304 2.5001 17V9H1.5031C0.550104 9 0.136104 7.794 0.888104 7.209L9.2721 0.689V0.688Z" fill="white"/>
</svg>
