<svg width="19" height="20" viewBox="0 0 19 20" fill="none" xmlns="http://www.w3.org/2000/svg">
<path fill-rule="evenodd" clip-rule="evenodd" d="M13.2158 14.9737H5.99585C5.58185 14.9737 5.24585 14.6377 5.24585 14.2237C5.24585 13.8097 5.58185 13.4737 5.99585 13.4737H13.2158C13.6298 13.4737 13.9658 13.8097 13.9658 14.2237C13.9658 14.6377 13.6298 14.9737 13.2158 14.9737Z" fill="white"/>
<path fill-rule="evenodd" clip-rule="evenodd" d="M13.2158 10.7872H5.99585C5.58185 10.7872 5.24585 10.4512 5.24585 10.0372C5.24585 9.6232 5.58185 9.2872 5.99585 9.2872H13.2158C13.6298 9.2872 13.9658 9.6232 13.9658 10.0372C13.9658 10.4512 13.6298 10.7872 13.2158 10.7872Z" fill="white"/>
<path fill-rule="evenodd" clip-rule="evenodd" d="M8.75061 6.6104H5.99561C5.58161 6.6104 5.24561 6.2744 5.24561 5.8604C5.24561 5.4464 5.58161 5.1104 5.99561 5.1104H8.75061C9.16461 5.1104 9.50061 5.4464 9.50061 5.8604C9.50061 6.2744 9.16461 6.6104 8.75061 6.6104Z" fill="white"/>
<mask id="mask0_5562_50" style="mask-type:luminance" maskUnits="userSpaceOnUse" x="0" y="0" width="19" height="20">
<path fill-rule="evenodd" clip-rule="evenodd" d="M0.5 0.000200033H18.6647V19.91H0.5V0.000200033Z" fill="white"/>
</mask>
<g mask="url(#mask0_5562_50)">
<path fill-rule="evenodd" clip-rule="evenodd" d="M13.4088 1.5L5.71976 1.504C3.39176 1.518 1.99976 2.958 1.99976 5.357V14.553C1.99976 16.968 3.40476 18.41 5.75576 18.41L13.4448 18.407C15.7728 18.393 17.1648 16.951 17.1648 14.553V5.357C17.1648 2.942 15.7608 1.5 13.4088 1.5ZM5.75676 19.91C2.61276 19.91 0.499756 17.757 0.499756 14.553V5.357C0.499756 2.124 2.54676 0.023 5.71476 0.004L13.4078 0H13.4088C16.5528 0 18.6648 2.153 18.6648 5.357V14.553C18.6648 17.785 16.6178 19.887 13.4498 19.907L5.75676 19.91Z" fill="white"/>
</g>
</svg>
